<?xml version="1.0" encoding="iso-8859-1"?>
<!-- Generator: Adobe Illustrator 19.0.0, SVG Export Plug-In . SVG Version: 6.00 Build 0)  -->
<svg version="1.1" id="Layer_1" xmlns="http://www.w3.org/2000/svg" xmlns:xlink="http://www.w3.org/1999/xlink" x="0px" y="0px"
	 viewBox="0 0 512 512" style="enable-background:new 0 0 512 512;" xml:space="preserve">
<path style="fill:#547475;" d="M405.325,0h-64.461H171.135h-64.461C94.568,0,84.75,9.815,84.75,21.924v151.051v166.051v151.051
	c0,12.108,9.817,21.924,21.924,21.924h64.461h25.273h144.456h64.461c12.11,0,21.925-9.816,21.925-21.924V339.025V172.975V21.924
	C427.25,9.815,417.435,0,405.325,0z"/>
<path style="opacity:0.15;fill:#231F20;enable-background:new    ;" d="M102.559,490.076V339.025V172.975V21.924
	C102.559,9.815,112.376,0,124.483,0h-17.809C94.568,0,84.75,9.815,84.75,21.924v151.051v166.051v151.051
	c0,12.108,9.817,21.924,21.924,21.924h17.809C112.376,512,102.559,502.184,102.559,490.076z"/>
<rect x="119.296" y="88.888" style="fill:#A9C4C4;" width="274.12" height="56.164"/>
<g>
	<rect x="119.296" y="145.052" style="fill:#8AACAD;" width="274.12" height="56.164"/>
	<path style="fill:#8AACAD;" d="M380.05,32.722h-39.733h-25.228h-182.44c-7.376,0-13.357,5.979-13.357,13.357v42.805h274.115V46.079
		C393.406,38.702,387.426,32.722,380.05,32.722z"/>
</g>
<path style="fill:#A9C4C4;" d="M119.292,244.017c0,7.376,5.98,13.357,13.357,13.357H380.05c7.376,0,13.357-5.98,13.357-13.357
	V201.21H119.292V244.017z"/>
<path style="opacity:0.15;fill:#231F20;enable-background:new    ;" d="M137.1,244.017V201.21v-56.162V88.884V46.079
	c0-7.377,5.98-13.357,13.357-13.357h-17.809c-7.376,0-13.357,5.979-13.357,13.357v42.805v56.164v56.162v42.807
	c0,7.376,5.98,13.357,13.357,13.357h17.809C143.081,257.373,137.1,251.393,137.1,244.017z"/>
<g>
	<circle style="fill:#53CAF9;" cx="336.228" cy="438.539" r="12.255"/>
	<circle style="fill:#53CAF9;" cx="381.151" cy="438.539" r="12.255"/>
</g>
<g>
	<path style="fill:#8AACAD;" d="M225.067,351.177c-4.611,0-8.348-3.725-8.348-8.336v-0.024c0-4.611,3.736-8.348,8.348-8.348
		s8.348,3.736,8.348,8.348C233.415,347.429,229.679,351.177,225.067,351.177z"/>
	<path style="fill:#8AACAD;" d="M194.71,351.177c-4.61,0-8.348-3.725-8.348-8.336v-0.024c0-4.611,3.738-8.348,8.348-8.348
		c4.61,0,8.348,3.736,8.348,8.348C203.058,347.429,199.319,351.177,194.71,351.177z"/>
	<path style="fill:#8AACAD;" d="M164.351,351.177c-4.61,0-8.348-3.725-8.348-8.336v-0.024c0-4.611,3.738-8.348,8.348-8.348
		c4.61,0,8.348,3.736,8.348,8.348C172.699,347.429,168.961,351.177,164.351,351.177z"/>
	<path style="fill:#8AACAD;" d="M256.574,351.19c-4.611,0-8.348-3.736-8.348-8.348c0-4.611,3.736-8.36,8.348-8.36
		c4.611,0,8.348,3.725,8.348,8.336v0.024C264.922,347.452,261.185,351.19,256.574,351.19z"/>
	<path style="fill:#8AACAD;" d="M347.648,351.19c-4.611,0-8.348-3.736-8.348-8.348c0-4.611,3.736-8.36,8.348-8.36
		c4.611,0,8.348,3.725,8.348,8.336v0.024C355.996,347.452,352.258,351.19,347.648,351.19z"/>
	<path style="fill:#8AACAD;" d="M317.289,351.19c-4.609,0-8.348-3.736-8.348-8.348c0-4.611,3.739-8.36,8.348-8.36
		c4.611,0,8.348,3.725,8.348,8.336v0.024C325.636,347.452,321.9,351.19,317.289,351.19z"/>
	<path style="fill:#8AACAD;" d="M286.931,351.19c-4.61,0-8.348-3.736-8.348-8.348c0-4.611,3.738-8.36,8.348-8.36
		s8.348,3.725,8.348,8.336v0.024C295.279,347.452,291.542,351.19,286.931,351.19z"/>
	<path style="fill:#8AACAD;" d="M149.576,379.826c-4.611,0-8.348-3.725-8.348-8.336v-0.023c0-4.611,3.736-8.348,8.348-8.348
		s8.348,3.736,8.348,8.348C157.924,376.077,154.187,379.826,149.576,379.826z"/>
	<path style="fill:#8AACAD;" d="M240.65,379.826c-4.611,0-8.348-3.725-8.348-8.336v-0.023c0-4.611,3.736-8.348,8.348-8.348
		s8.348,3.736,8.348,8.348C248.998,376.077,245.261,379.826,240.65,379.826z"/>
	<path style="fill:#8AACAD;" d="M210.293,379.826c-4.61,0-8.348-3.725-8.348-8.336v-0.023c0-4.611,3.738-8.348,8.348-8.348
		s8.348,3.736,8.348,8.348C218.641,376.077,214.902,379.826,210.293,379.826z"/>
	<path style="fill:#8AACAD;" d="M179.934,379.826c-4.61,0-8.348-3.725-8.348-8.336v-0.023c0-4.611,3.738-8.348,8.348-8.348
		c4.61,0,8.348,3.736,8.348,8.348C188.281,376.077,184.544,379.826,179.934,379.826z"/>
	<path style="fill:#8AACAD;" d="M332.065,379.838c-4.611,0-8.348-3.736-8.348-8.348c0-4.611,3.736-8.36,8.348-8.36
		c4.611,0,8.348,3.725,8.348,8.336v0.023C340.413,376.101,336.676,379.838,332.065,379.838z"/>
	<path style="fill:#8AACAD;" d="M301.706,379.838c-4.609,0-8.348-3.736-8.348-8.348c0-4.611,3.739-8.36,8.348-8.36
		c4.611,0,8.348,3.725,8.348,8.336v0.023C310.054,376.101,306.317,379.838,301.706,379.838z"/>
	<path style="fill:#8AACAD;" d="M362.423,379.838c-4.61,0-8.348-3.736-8.348-8.348c0-4.611,3.738-8.36,8.348-8.36
		c4.61,0,8.348,3.725,8.348,8.336v0.023C370.77,376.101,367.033,379.838,362.423,379.838z"/>
	<path style="fill:#8AACAD;" d="M271.349,379.838c-4.61,0-8.348-3.736-8.348-8.348c0-4.611,3.738-8.36,8.348-8.36
		s8.348,3.725,8.348,8.336v0.023C279.697,376.101,275.959,379.838,271.349,379.838z"/>
</g>
<circle style="fill:#A9C4C4;" cx="262.033" cy="438.539" r="27.826"/>
<path style="fill:#446363;" d="M393.406,305.16H119.292c-4.611,0-8.348-3.736-8.348-8.348c0-4.611,3.736-8.348,8.348-8.348h274.115
	c4.61,0,8.348,3.736,8.348,8.348C401.754,301.423,398.018,305.16,393.406,305.16z"/>
<circle style="fill:#53CAF9;" cx="262.033" cy="438.539" r="8.209"/>
<g>
	<path style="fill:#547475;" d="M363.867,69.152h-1.095c-4.611,0-8.348-3.736-8.348-8.348s3.736-8.348,8.348-8.348h1.095
		c4.611,0,8.348,3.736,8.348,8.348S368.479,69.152,363.867,69.152z"/>
	<path style="fill:#547475;" d="M363.867,125.315h-1.095c-4.611,0-8.348-3.736-8.348-8.348s3.736-8.348,8.348-8.348h1.095
		c4.611,0,8.348,3.736,8.348,8.348S368.479,125.315,363.867,125.315z"/>
	<path style="fill:#547475;" d="M363.867,181.478h-1.095c-4.611,0-8.348-3.736-8.348-8.348c0-4.611,3.736-8.348,8.348-8.348h1.095
		c4.611,0,8.348,3.736,8.348,8.348C372.215,177.741,368.479,181.478,363.867,181.478z"/>
	<path style="fill:#547475;" d="M363.867,237.64h-1.095c-4.611,0-8.348-3.736-8.348-8.348s3.736-8.348,8.348-8.348h1.095
		c4.611,0,8.348,3.736,8.348,8.348C372.215,233.904,368.479,237.64,363.867,237.64z"/>
</g>
<g>
</g>
<g>
</g>
<g>
</g>
<g>
</g>
<g>
</g>
<g>
</g>
<g>
</g>
<g>
</g>
<g>
</g>
<g>
</g>
<g>
</g>
<g>
</g>
<g>
</g>
<g>
</g>
<g>
</g>
</svg>
