<?xml version="1.0" encoding="iso-8859-1"?>
<!-- Generator: Adobe Illustrator 19.0.0, SVG Export Plug-In . SVG Version: 6.00 Build 0)  -->
<svg version="1.1" id="Layer_1" xmlns="http://www.w3.org/2000/svg" xmlns:xlink="http://www.w3.org/1999/xlink" x="0px" y="0px"
	 viewBox="0 0 512 512" style="enable-background:new 0 0 512 512;" xml:space="preserve">
<path style="fill:#6A86AC;" d="M448.163,504.211L448.163,504.211c-17.688,0-32.027-14.339-32.027-32.027v-48.041
	c0-17.688,14.339-32.027,32.027-32.027l0,0c17.688,0,32.027,14.339,32.027,32.027v48.041
	C480.191,489.872,465.851,504.211,448.163,504.211z"/>
<rect x="7.789" y="360.093" style="fill:#AACD4C;" width="336.289" height="144.118"/>
<rect x="175.929" y="360.093" style="fill:#95C11F;" width="168.14" height="144.118"/>
<rect x="7.789" y="7.789" style="fill:#889EBD;" width="496.422" height="232.197"/>
<polyline style="fill:#6A86AC;" points="504.211,7.789 504.211,239.987 7.789,239.987 "/>
<rect x="7.789" y="288.029" style="fill:#889EBD;" width="496.422" height="24.021"/>
<rect x="256" y="288.029" style="fill:#6A86AC;" width="248.211" height="24.021"/>
<rect x="7.789" y="239.986" style="fill:#AACD4C;" width="496.422" height="48.043"/>
<rect x="256" y="239.986" style="fill:#95C11F;" width="248.211" height="48.043"/>
<g>
	<path style="fill:#1D1D1B;" d="M0,319.837h16.013v16.231h15.578v-16.231h448.816v16.231h15.578v-16.231H512V0H0V319.837z
		 M15.578,247.776h480.844v32.463H15.578V247.776z M496.422,15.578v216.62H15.578V15.578H496.422z M496.422,304.259H15.578v-8.442
		h480.844V304.259z"/>
	<rect x="215.964" y="256.218" style="fill:#1D1D1B;" width="16.013" height="15.578"/>
	<rect x="247.993" y="256.218" style="fill:#1D1D1B;" width="16.013" height="15.578"/>
	<rect x="280.021" y="256.218" style="fill:#1D1D1B;" width="16.013" height="15.578"/>
</g>
<g>
	
		<rect x="92.089" y="63.546" transform="matrix(-0.7071 -0.7071 0.7071 -0.7071 105.5504 227.4333)" style="fill:#FFFFFF;" width="15.578" height="56.621"/>
	
		<rect x="124.12" y="42.28" transform="matrix(-0.7071 -0.7071 0.7071 -0.7071 143.2423 291.0932)" style="fill:#FFFFFF;" width="15.578" height="147.201"/>
	
		<rect x="150.145" y="118.083" transform="matrix(-0.7071 -0.7071 0.7071 -0.7071 172.1013 347.082)" style="fill:#FFFFFF;" width="15.578" height="39.63"/>
	
		<rect x="224.202" y="6.646" transform="matrix(-0.7071 -0.7071 0.7071 -0.7071 311.2669 368.6847)" style="fill:#FFFFFF;" width="15.578" height="226.462"/>
	
		<rect x="296.259" y="77.898" transform="matrix(-0.7071 -0.7071 0.7071 -0.7071 439.9394 405.9645)" style="fill:#FFFFFF;" width="15.578" height="67.941"/>
	
		<rect x="294.267" y="166.12" transform="matrix(-0.7071 -0.7071 0.7071 -0.7071 384.1656 530.9966)" style="fill:#FFFFFF;" width="15.578" height="39.63"/>
	
		<rect x="398.352" y="50.128" transform="matrix(-0.7071 -0.7071 0.7071 -0.7071 595.8281 522.5681)" style="fill:#FFFFFF;" width="15.578" height="175.511"/>
</g>
<g>
	<path style="fill:#1D1D1B;" d="M351.864,512H0V352.3h351.864V512z M15.578,496.422h320.708V367.878H15.578V496.422z"/>
	<rect x="39.818" y="392.329" style="fill:#1D1D1B;" width="16.013" height="15.578"/>
	<rect x="71.846" y="392.329" style="fill:#1D1D1B;" width="16.013" height="15.578"/>
	<rect x="103.875" y="392.329" style="fill:#1D1D1B;" width="16.013" height="15.578"/>
	<rect x="135.893" y="392.329" style="fill:#1D1D1B;" width="16.013" height="15.578"/>
	<rect x="167.921" y="392.329" style="fill:#1D1D1B;" width="16.013" height="15.578"/>
	<rect x="199.95" y="392.329" style="fill:#1D1D1B;" width="16.013" height="15.578"/>
	<rect x="231.979" y="392.329" style="fill:#1D1D1B;" width="16.013" height="15.578"/>
	<rect x="264.007" y="392.329" style="fill:#1D1D1B;" width="16.013" height="15.578"/>
	<rect x="296.036" y="392.329" style="fill:#1D1D1B;" width="16.013" height="15.578"/>
	<rect x="39.818" y="424.358" style="fill:#1D1D1B;" width="16.013" height="15.578"/>
	<rect x="71.846" y="424.358" style="fill:#1D1D1B;" width="16.013" height="15.578"/>
	<rect x="103.875" y="424.358" style="fill:#1D1D1B;" width="16.013" height="15.578"/>
	<rect x="135.893" y="424.358" style="fill:#1D1D1B;" width="16.013" height="15.578"/>
	<rect x="167.921" y="424.358" style="fill:#1D1D1B;" width="16.013" height="15.578"/>
	<rect x="199.95" y="424.358" style="fill:#1D1D1B;" width="16.013" height="15.578"/>
	<rect x="231.979" y="424.358" style="fill:#1D1D1B;" width="16.013" height="15.578"/>
	<rect x="264.007" y="424.358" style="fill:#1D1D1B;" width="16.013" height="15.578"/>
	<rect x="296.036" y="424.358" style="fill:#1D1D1B;" width="16.013" height="15.578"/>
	<rect x="39.818" y="456.386" style="fill:#1D1D1B;" width="16.013" height="15.578"/>
	<rect x="71.846" y="456.386" style="fill:#1D1D1B;" width="16.013" height="15.578"/>
	<rect x="264.007" y="456.386" style="fill:#1D1D1B;" width="16.013" height="15.578"/>
	<rect x="296.036" y="456.386" style="fill:#1D1D1B;" width="16.013" height="15.578"/>
</g>
<rect x="103.875" y="456.386" style="fill:#FFFFFF;" width="144.118" height="15.578"/>
<path style="fill:#1D1D1B;" d="M448.163,512c-21.955,0-39.817-17.862-39.817-39.817v-48.041c0-21.955,17.862-39.817,39.817-39.817
	s39.817,17.862,39.817,39.817v48.041C487.98,494.138,470.118,512,448.163,512z M448.163,399.905
	c-13.365,0-24.238,10.874-24.238,24.238v48.041c0,13.365,10.874,24.238,24.238,24.238s24.238-10.874,24.238-24.238v-48.041
	C472.402,410.778,461.528,399.905,448.163,399.905z"/>
<rect x="440.372" y="416.132" style="fill:#FFFFFF;" width="15.578" height="16.014"/>
<g>
</g>
<g>
</g>
<g>
</g>
<g>
</g>
<g>
</g>
<g>
</g>
<g>
</g>
<g>
</g>
<g>
</g>
<g>
</g>
<g>
</g>
<g>
</g>
<g>
</g>
<g>
</g>
<g>
</g>
</svg>
